<?xml version="1.0" encoding="utf-8"?>
<!-- Generator: Adobe Illustrator 16.0.0, SVG Export Plug-In . SVG Version: 6.00 Build 0)  -->
<!DOCTYPE svg PUBLIC "-//W3C//DTD SVG 1.1//EN" "http://www.w3.org/Graphics/SVG/1.1/DTD/svg11.dtd">
<svg version="1.1" id="Layer_1" xmlns="http://www.w3.org/2000/svg" xmlns:xlink="http://www.w3.org/1999/xlink" x="0px" y="0px"
	 width="648px" height="1152px" viewBox="0 0 648 1152" enable-background="new 0 0 648 1152" xml:space="preserve">
<g>
	<g>
		<g>
			<path fill="#0C948A" d="M139.875,911.621l-5.727-14.836h-26.492l-5.729,14.836H87.875l26.85-66.618h12.709l26.85,66.618H139.875z
				 M120.9,862.483l-8.322,21.451h16.646L120.9,862.483z"/>
			<path fill="#0C948A" d="M207.533,911.621v-43.184l-17.631,28.253h-0.357l-17.453-27.97v42.9h-13.514v-66.146h14.856
				l16.468,27.971l16.468-27.971h14.856v66.146H207.533z"/>
			<path fill="#0C948A" d="M260.693,911.621h-29.801v-66.146h29.086c12.797,0,20.674,6.71,20.674,17.104v0.188
				c0,7.466-3.76,11.623-8.234,14.27c7.25,2.929,11.725,7.37,11.725,16.253v0.188C284.143,905.573,274.836,911.621,260.693,911.621z
				 M266.959,865.035c0-4.346-3.223-6.803-9.039-6.803h-13.604v13.983h12.707c6.088,0,9.936-2.078,9.936-6.992V865.035z
				 M270.449,891.493c0-4.441-3.133-7.182-10.202-7.182h-15.931v14.552h16.377c6.086,0,9.756-2.268,9.756-7.182V891.493z"/>
			<path fill="#0C948A" d="M328.173,911.621l-13.425-21.167h-10.829v21.167h-13.782v-66.146h28.639
				c14.768,0,23.627,8.222,23.627,21.829v0.188c0,10.679-5.459,17.388-13.424,20.506l15.304,23.624H328.173z M328.441,868.06
				c0-6.237-4.117-9.45-10.83-9.45h-13.692v18.993h13.962c6.712,0,10.561-3.779,10.561-9.355V868.06z"/>
			<path fill="#0C948A" d="M379.901,912.755c-19.331,0-33.204-15.214-33.204-34.018v-0.189c0-18.804,14.051-34.206,33.383-34.206
				s33.204,15.213,33.204,34.017v0.189C413.284,897.352,399.231,912.755,379.901,912.755z M398.875,878.548
				c0-11.339-7.877-20.789-18.974-20.789c-11.098,0-18.796,9.261-18.796,20.6v0.189c0,11.339,7.876,20.789,18.975,20.789
				c11.098,0,18.795-9.261,18.795-20.6V878.548z"/>
			<path fill="#0C948A" d="M442.458,912.565c-9.487,0-19.063-3.496-26.581-10.583l8.145-10.301
				c5.639,4.914,11.545,8.032,18.705,8.032c5.64,0,9.039-2.362,9.039-6.236v-0.188c0-3.685-2.147-5.575-12.619-8.41
				c-12.619-3.401-20.764-7.086-20.764-20.222v-0.188c0-12.001,9.129-19.938,21.928-19.938c9.128,0,16.916,3.024,23.27,8.409
				l-7.16,10.961c-5.549-4.062-11.009-6.519-16.289-6.519s-8.056,2.55-8.056,5.764v0.189c0,4.346,2.687,5.764,13.515,8.693
				c12.71,3.496,19.869,8.315,19.869,19.843v0.189C465.459,905.194,455.973,912.565,442.458,912.565z"/>
			<path fill="#0C948A" d="M472.707,911.621v-66.146h13.783v66.146H472.707z"/>
			<path fill="#0C948A" d="M527.211,912.755c-19.33,0-33.203-15.214-33.203-34.018v-0.189c0-18.804,14.051-34.206,33.383-34.206
				s33.203,15.213,33.203,34.017v0.189C560.594,897.352,546.543,912.755,527.211,912.755z M546.185,878.548
				c0-11.339-7.875-20.789-18.974-20.789c-11.098,0-18.795,9.261-18.795,20.6v0.189c0,11.339,7.877,20.789,18.975,20.789
				s18.794-9.261,18.794-20.6V878.548z"/>
			<path fill="#0C948A" d="M106.053,981.936H87.368v-50.581h18.685c15.057,0,25.458,10.909,25.458,25.146v0.146
				C131.511,970.88,121.109,981.936,106.053,981.936z M120.494,956.646c0-8.961-5.819-15.248-14.441-15.248h-8.145v30.494h8.145
				c8.622,0,14.441-6.142,14.441-15.103V956.646z"/>
			<path fill="#0C948A" d="M135.412,981.936v-50.581h36.137v9.899h-25.664v10.26h22.583v9.899h-22.583v10.623h26.006v9.899H135.412z
				"/>
			<path fill="#0C948A" d="M214.869,981.936l-23.201-32.154v32.154h-10.402v-50.581h9.719l22.448,31.144v-31.144h10.403v50.581
				H214.869z"/>
			<path fill="#0C948A" d="M252.92,941.614v40.321h-10.538v-40.321h-14.577v-10.26h39.693v10.26H252.92z"/>
			<path fill="#0C948A" d="M301.648,981.936l-4.38-11.345h-20.257l-4.38,11.345h-10.744l20.53-50.942h9.717l20.532,50.942H301.648z
				 M287.141,944.361l-6.366,16.401h12.73L287.141,944.361z"/>
			<path fill="#0C948A" d="M317.321,981.936v-50.581h10.54v40.465h23.884v10.116H317.321z"/>
			<path fill="#0C948A" d="M402.662,982.803c-14.098,0-24.568-11.489-24.568-26.014v-0.144c0-14.382,10.266-26.158,24.979-26.158
				c9.035,0,14.441,3.179,18.89,7.804l-6.708,8.165c-3.695-3.54-7.459-5.708-12.25-5.708c-8.074,0-13.893,7.081-13.893,15.752v0.146
				c0,8.67,5.68,15.896,13.893,15.896c5.477,0,8.828-2.312,12.592-5.926l6.707,7.155
				C417.375,979.334,411.901,982.803,402.662,982.803z"/>
			<path fill="#0C948A" d="M462.271,981.936l-4.379-11.345h-20.26l-4.379,11.345h-10.745l20.532-50.942h9.717l20.532,50.942H462.271
				z M447.764,944.361l-6.366,16.401h12.729L447.764,944.361z"/>
			<path fill="#0C948A" d="M505.66,981.936l-10.266-16.186h-8.279v16.186h-10.539v-50.581h21.898
				c11.293,0,18.067,6.286,18.067,16.691v0.145c0,8.165-4.174,13.296-10.265,15.68l11.703,18.065H505.66z M505.867,948.625
				c0-4.77-3.149-7.228-8.281-7.228h-10.471v14.524h10.676c5.133,0,8.076-2.89,8.076-7.154V948.625z"/>
			<path fill="#0C948A" d="M523.318,981.936v-50.581h36.135v9.899h-25.664v10.26h22.584v9.899h-22.584v10.623h26.006v9.899H523.318z
				"/>
		</g>
	</g>
	<g>
		<path fill="#0C948A" d="M560.654,319.643c0,31.887-6.25,62.83-18.576,91.971c-11.899,28.137-28.934,53.402-50.625,75.095
			c-21.691,21.691-46.956,38.725-75.094,50.626c-29.141,12.324-60.085,18.574-91.971,18.574c-31.889,0-62.831-6.25-91.973-18.574
			c-28.137-11.901-53.402-28.935-75.094-50.626c-21.693-21.692-38.725-46.958-50.625-75.095
			c-12.326-29.141-18.575-60.084-18.575-91.971s6.249-62.831,18.575-91.972c11.9-28.137,28.932-53.403,50.625-75.095
			c21.691-21.691,46.957-38.725,75.094-50.625c29.142-12.326,60.084-18.576,91.973-18.576c31.886,0,62.83,6.25,91.971,18.576
			c28.138,11.9,53.402,28.934,75.094,50.625s38.726,46.958,50.625,75.095C554.404,256.812,560.654,287.756,560.654,319.643z
			 M470.312,217.229c-1.069-21.902-7.706-38.483-19.728-49.284c-11.629-10.445-26.73-15.523-46.17-15.523
			c-14.367,0-29.082,2.726-42.845,5.67c-13.42,2.869-25.435,4.996-45.911,8.127c-2.391,0.365-4.21,2.333-4.389,4.743
			c-0.178,2.41,1.334,4.624,3.643,5.337c3.094,0.955,6.609,1.42,10.75,1.42c4.309,0,8.753-0.51,12.672-0.959
			c1.496-0.172,2.957-0.339,4.361-0.473c9.426-0.9,16.35-1.823,22.458-2.639c6.989-0.933,13.028-1.738,21.112-2.311
			c0.737-0.053,1.504-0.079,2.277-0.079c14.967,0,31.893,9.051,36.963,19.765c12.278,25.951,8.117,59.175,4.445,88.486
			c-0.529,4.215-1.027,8.197-1.482,12.168c-3.086,26.923-8.787,54.713-16.946,82.598c-1.321,4.517-2.612,9.265-3.978,14.291
			c-3.615,13.299-7.352,27.05-12.121,38.192c-0.878,2.054-4.155,8.757-9.43,8.757c-1.453,0-3.061-0.503-4.777-1.497
			c-6.707-3.883-10.935-13.32-15.021-22.444c-6.11-13.639-13.035-29.095-30.194-29.095c-3.269,0-6.815,0.599-10.542,1.783
			c-21.471,6.813-34.442,24.271-46.986,41.155c-6.175,8.311-12.963,15.896-19.52,23.879c-3.695,4.501-12.4,19.147-20.156,14.021
			c-3.718-2.458-1.603-8.321-1.07-11.729c0.664-4.249,1.836-8.36,2.835-12.533c4.039-16.884,10.142-42.398,7.259-72.478
			c-2.122-22.137-9.197-43.14-16.038-63.451c-6.883-20.432-13.999-41.559-15.683-63.214c-1.507-19.309-0.066-44.352,15.33-54.007
			c4.626-2.9,9.93-4.311,16.212-4.311c18.729,0,40.479,12.533,56.364,21.686c1.27,0.73,2.494,1.436,3.67,2.107
			c11.668,6.67,21.287,9.91,31.188,10.51c0.819,0.049,1.649,0.074,2.468,0.074c17.001,0,32.608-10.359,46.387-30.787
			c1.391-2.062,1.123-4.818-0.639-6.573s-4.521-2.012-6.576-0.616c-17.126,11.646-31.196,17.551-41.819,17.551
			c-1.201,0-2.373-0.077-3.483-0.229c-13.928-1.913-25.379-11.438-36.452-20.647l-1.212-1.007
			c-14.801-12.292-33.456-19.343-51.18-19.343c-12.147,0-23.158,3.241-32.729,9.632c-19.101,12.76-30.52,33.169-33.021,59.022
			c-2.019,20.874,1.794,44.552,10.735,66.672c2.521,6.236,4.971,12.274,7.336,18.104c18.556,45.721,33.212,81.834,33.212,94.666
			c0,14.697-3.397,30.52-6.717,44.062c-0.474,1.93-1.122,4.104-1.807,6.406c-3.408,11.442-8.075,27.114,2.198,37.695
			c3.623,3.731,8.126,5.704,13.023,5.704c15.298,0,31.289-18.893,41.986-33.105c4.962-6.595,9.273-14.103,13.445-21.364
			c9.492-16.526,18.457-32.136,34.77-39.079c2.767-1.178,5.279-1.775,7.469-1.775c8.053,0,12.049,8.877,14.354,15.557
			c0.738,2.14,1.538,5.261,2.466,8.877c3.758,14.666,8.905,34.752,21.961,38.335c1.393,0.382,2.803,0.574,4.193,0.574
			c13.01,0,20.414-15.911,25.314-26.441c0.88-1.888,1.638-3.519,2.291-4.755c12.66-23.995,22.692-49.912,32.393-74.977l1.803-4.658
			c13.178-34.004,20.888-60.504,24.998-85.924C468.094,254.82,471.205,235.586,470.312,217.229z"/>
		<g>
			<path fill="#0C948A" d="M217.65,780.377l-14.355-35.21H136.91l-14.356,35.21H87.346l67.276-158.111h31.849l67.285,158.111H217.65
				z M170.096,663.758l-20.854,50.905h41.715L170.096,663.758z"/>
			<path fill="#0C948A" d="M323.615,780.377h-61.227V623.39h61.227c49.338,0,83.42,33.862,83.42,78.044v0.447
				C407.035,746.062,372.953,780.377,323.615,780.377z M370.928,701.881c0-27.805-19.055-47.319-47.312-47.319h-26.691v94.638
				h26.691c28.258,0,47.312-19.062,47.312-46.869V701.881z"/>
			<path fill="#0C948A" d="M495.506,783.067c-46.195,0-80.518-35.662-80.518-80.737v-0.449c0-44.629,33.64-81.183,81.86-81.183
				c29.606,0,47.319,9.867,61.894,24.216l-21.973,25.348c-12.109-10.992-24.451-17.716-40.148-17.716
				c-26.464,0-45.525,21.975-45.525,48.888v0.447c0,26.908,18.617,49.339,45.525,49.339c17.945,0,28.934-7.175,41.271-18.388
				l21.978,22.2C543.723,772.298,525.78,783.067,495.506,783.067z"/>
		</g>
	</g>
</g>
</svg>
