<?xml version="1.0" encoding="utf-8"?>
<!-- Generator: Adobe Illustrator 16.0.0, SVG Export Plug-In . SVG Version: 6.00 Build 0)  -->
<!DOCTYPE svg PUBLIC "-//W3C//DTD SVG 1.1//EN" "http://www.w3.org/Graphics/SVG/1.1/DTD/svg11.dtd">
<svg version="1.1" id="Layer_1" xmlns="http://www.w3.org/2000/svg" xmlns:xlink="http://www.w3.org/1999/xlink" x="0px" y="0px"
	 width="680px" height="360px" viewBox="0 0 680 360" enable-background="new 0 0 680 360" xml:space="preserve">
<g>
	<g>
		<path fill="#0C948A" d="M135.948,177.627l-6.97-18.059H96.739l-6.971,18.059H72.667l32.675-81.075h15.466l32.675,81.075H135.948z
			 M112.856,117.825l-10.127,26.106h20.257L112.856,117.825z"/>
		<path fill="#0C948A" d="M218.286,177.627v-52.555l-21.455,34.383h-0.438l-21.238-34.039v52.211h-16.446V97.128h18.079
			l20.043,34.038l20.039-34.038h18.081v80.499H218.286z"/>
		<path fill="#0C948A" d="M282.98,177.627h-36.267V97.128h35.395c15.574,0,25.16,8.165,25.16,20.813v0.229
			c0,9.086-4.574,14.146-10.02,17.366c8.822,3.563,14.268,8.969,14.268,19.779v0.229C311.517,170.264,300.19,177.627,282.98,177.627
			z M290.605,120.932c0-5.288-3.923-8.279-11.001-8.279H263.05v17.017h15.465c7.406,0,12.091-2.526,12.091-8.509V120.932z
			 M294.853,153.13c0-5.406-3.812-8.741-12.416-8.741H263.05v17.71h19.931c7.407,0,11.872-2.759,11.872-8.737V153.13z"/>
		<path fill="#0C948A" d="M365.101,177.627l-16.337-25.763h-13.18v25.763h-16.772V97.128h34.852
			c17.975,0,28.756,10.003,28.756,26.563v0.229c0,12.996-6.646,21.161-16.336,24.957l18.621,28.75H365.101z M365.429,124.611
			c0-7.59-5.01-11.5-13.181-11.5h-16.664v23.113h16.991c8.168,0,12.854-4.598,12.854-11.384V124.611z"/>
		<path fill="#0C948A" d="M428.054,179.005c-23.525,0-40.408-18.516-40.408-41.398v-0.229c0-22.883,17.098-41.629,40.625-41.629
			c23.525,0,40.408,18.514,40.408,41.396v0.232C468.679,160.261,451.577,179.005,428.054,179.005z M451.142,137.377
			c0-13.802-9.582-25.302-23.088-25.302c-13.508,0-22.875,11.271-22.875,25.069v0.232c0,13.799,9.584,25.297,23.092,25.297
			c13.504,0,22.871-11.27,22.871-25.067V137.377z"/>
		<path fill="#0C948A" d="M504.181,178.775c-11.543,0-23.199-4.256-32.346-12.88l9.912-12.534c6.859,5.979,14.049,9.774,22.76,9.774
			c6.865,0,11.002-2.875,11.002-7.592v-0.229c0-4.484-2.613-6.786-15.359-10.234c-15.355-4.14-25.266-8.624-25.266-24.609v-0.228
			c0-14.606,11.107-24.266,26.686-24.266c11.107,0,20.584,3.681,28.318,10.234l-8.715,13.338
			c-6.752-4.944-13.398-7.932-19.822-7.932c-6.428,0-9.805,3.103-9.805,7.012v0.23c0,5.29,3.268,7.017,16.445,10.58
			c15.469,4.256,24.182,10.117,24.182,24.149v0.231C532.173,169.807,520.63,178.775,504.181,178.775z"/>
		<path fill="#0C948A" d="M540.993,177.627V97.128h16.773v80.499H540.993z"/>
		<path fill="#0C948A" d="M607.325,179.005c-23.527,0-40.41-18.516-40.41-41.398v-0.229c0-22.883,17.1-41.629,40.629-41.629
			c23.525,0,40.406,18.514,40.406,41.396v0.232C647.95,160.261,630.851,179.005,607.325,179.005z M630.413,137.377
			c0-13.802-9.584-25.302-23.088-25.302c-13.508,0-22.873,11.271-22.873,25.069v0.232c0,13.799,9.584,25.297,23.092,25.297
			c13.502,0,22.869-11.27,22.869-25.067V137.377z"/>
		<path fill="#0C948A" d="M94.788,263.197H72.05v-61.559h22.738c18.323,0,30.98,13.277,30.98,30.602v0.178
			C125.769,249.738,113.111,263.197,94.788,263.197z M112.362,232.418c0-10.905-7.082-18.557-17.574-18.557h-9.911v37.11h9.911
			c10.492,0,17.574-7.474,17.574-18.38V232.418z"/>
		<path fill="#0C948A" d="M130.518,263.197v-61.559h43.978v12.048h-31.234v12.487h27.484v12.048h-27.484v12.925h31.648v12.051
			H130.518z"/>
		<path fill="#0C948A" d="M227.214,263.197l-28.234-39.132v39.132h-12.66v-61.559h11.828l27.318,37.902v-37.902h12.658v61.559
			H227.214z"/>
		<path fill="#0C948A" d="M273.521,214.127v49.07h-12.825v-49.07h-17.739v-12.488h48.306v12.488H273.521z"/>
		<path fill="#0C948A" d="M332.822,263.197l-5.331-13.81h-24.652l-5.33,13.81h-13.076l24.985-61.997h11.827l24.984,61.997H332.822z
			 M315.167,217.467l-7.749,19.961h15.493L315.167,217.467z"/>
		<path fill="#0C948A" d="M351.894,263.197v-61.559h12.826v49.246h29.068v12.312H351.894z"/>
		<path fill="#0C948A" d="M455.751,264.252c-17.158,0-29.898-13.983-29.898-31.66v-0.174c0-17.502,12.49-31.834,30.398-31.834
			c10.996,0,17.574,3.867,22.988,9.497l-8.164,9.938c-4.498-4.31-9.076-6.946-14.906-6.946c-9.828,0-16.906,8.617-16.906,19.168
			v0.178c0,10.553,6.908,19.345,16.906,19.345c6.664,0,10.742-2.813,15.322-7.212l8.164,8.71
			C473.655,260.028,466.997,264.252,455.751,264.252z"/>
		<path fill="#0C948A" d="M528.294,263.197l-5.328-13.81H498.31l-5.328,13.81h-13.076L504.89,201.2h11.828l24.984,61.997H528.294z
			 M510.638,217.467l-7.748,19.961h15.492L510.638,217.467z"/>
		<path fill="#0C948A" d="M581.099,263.197l-12.496-19.699h-10.074v19.699h-12.826v-61.559h26.65
			c13.742,0,21.988,7.652,21.988,20.312v0.178c0,9.937-5.082,16.18-12.492,19.084l14.242,21.984H581.099z M581.349,222.658
			c0-5.805-3.834-8.797-10.078-8.797h-12.742v17.675h12.992c6.244,0,9.828-3.516,9.828-8.705V222.658z"/>
		<path fill="#0C948A" d="M602.585,263.197v-61.559h43.977v12.048h-31.234v12.487h27.484v12.048h-27.484v12.925h31.648v12.051
			H602.585z"/>
	</g>
</g>
</svg>
