<?xml version="1.0" encoding="utf-8"?>
<!-- Generator: Adobe Illustrator 16.0.0, SVG Export Plug-In . SVG Version: 6.00 Build 0)  -->
<!DOCTYPE svg PUBLIC "-//W3C//DTD SVG 1.1//EN" "http://www.w3.org/Graphics/SVG/1.1/DTD/svg11.dtd">
<svg version="1.1" id="Layer_1" xmlns="http://www.w3.org/2000/svg" xmlns:xlink="http://www.w3.org/1999/xlink" x="0px" y="0px"
	 width="720px" height="720px" viewBox="0 0 720 720" enable-background="new 0 0 720 720" xml:space="preserve">
<g>
	<g>
		<path fill="#0C948A" d="M648.473,366.521c0,38.805-7.604,76.463-22.607,111.926c-14.48,34.242-35.213,64.988-61.609,91.387
			c-26.395,26.398-57.143,47.126-91.385,61.61c-35.463,14.999-73.123,22.605-111.928,22.605s-76.463-7.606-111.926-22.605
			c-34.242-14.484-64.988-35.212-91.385-61.61c-26.402-26.398-47.129-57.145-61.61-91.387c-15-35.463-22.605-73.121-22.605-111.926
			s7.605-76.464,22.605-111.927c14.481-34.242,35.208-64.988,61.61-91.387c26.396-26.398,57.143-47.127,91.385-61.609
			c35.463-15,73.121-22.605,111.926-22.605s76.465,7.605,111.928,22.605c34.242,14.482,64.99,35.211,91.385,61.609
			c26.396,26.398,47.129,57.145,61.609,91.387C640.869,290.057,648.473,327.716,648.473,366.521z M538.527,241.888
			c-1.299-26.655-9.377-46.833-24.008-59.978c-14.15-12.713-32.529-18.893-56.188-18.893c-17.484,0-35.391,3.318-52.141,6.901
			c-16.33,3.491-30.951,6.079-55.871,9.89c-2.91,0.445-5.123,2.84-5.34,5.771c-0.217,2.934,1.621,5.629,4.432,6.496
			c3.767,1.162,8.045,1.727,13.084,1.727c5.242,0,10.65-0.619,15.422-1.165c1.818-0.21,3.6-0.413,5.307-0.577
			c11.469-1.095,19.896-2.217,27.332-3.211c8.502-1.134,15.854-2.115,25.689-2.811c0.898-0.064,1.834-0.097,2.773-0.097
			c18.213,0,38.812,11.015,44.982,24.054c14.941,31.58,9.879,72.013,5.41,107.685c-0.645,5.13-1.252,9.977-1.807,14.809
			c-3.756,32.763-10.689,66.583-20.619,100.517c-1.609,5.498-3.18,11.276-4.842,17.394c-4.4,16.184-8.947,32.918-14.75,46.478
			c-1.07,2.5-5.057,10.656-11.477,10.657c-1.768,0-3.727-0.611-5.814-1.822c-8.162-4.726-13.309-16.21-18.281-27.312
			c-7.436-16.598-15.863-35.409-36.746-35.409c-3.977,0-8.293,0.729-12.83,2.171c-26.127,8.293-41.913,29.537-57.18,50.085
			c-7.514,10.114-15.775,19.345-23.754,29.061c-4.497,5.477-15.092,23.3-24.531,17.062c-4.523-2.991-1.948-10.126-1.301-14.273
			c0.809-5.172,2.234-10.175,3.449-15.254c4.916-20.546,12.344-51.599,8.836-88.2c-2.584-26.941-11.193-52.5-19.52-77.219
			c-8.375-24.864-17.035-50.575-19.086-76.931c-1.832-23.498-0.08-53.975,18.656-65.725c5.631-3.529,12.084-5.244,19.73-5.244
			c22.793,0,49.262,15.252,68.592,26.389c1.545,0.89,3.037,1.748,4.467,2.565c14.201,8.117,25.908,12.062,37.955,12.79
			c0.998,0.061,2.008,0.09,3.006,0.09c20.688,0,39.68-12.605,56.451-37.467c1.689-2.508,1.363-5.863-0.779-7.999
			s-5.5-2.448-8.002-0.749c-20.842,14.172-37.967,21.357-50.895,21.358c-1.461,0-2.887-0.095-4.238-0.28
			c-16.949-2.326-30.885-13.916-44.361-25.125l-1.475-1.227c-18.011-14.959-40.714-23.539-62.283-23.539
			c-14.785,0-28.184,3.944-39.832,11.722c-23.242,15.528-37.141,40.366-40.184,71.828c-2.457,25.403,2.184,54.219,13.065,81.138
			c3.069,7.59,6.05,14.938,8.928,22.033c22.581,55.64,40.417,99.589,40.417,115.204c0,17.887-4.133,37.142-8.174,53.622
			c-0.576,2.348-1.365,4.995-2.198,7.797c-4.147,13.925-9.827,32.995,2.675,45.874c4.408,4.54,9.889,6.941,15.85,6.941
			c18.617,0,38.078-22.992,51.094-40.289c6.041-8.024,11.288-17.16,16.363-26c11.553-20.11,22.463-39.105,42.314-47.556
			c3.365-1.436,6.426-2.163,9.09-2.163c9.799,0,14.664,10.805,17.469,18.934c0.898,2.603,1.871,6.401,3.002,10.802
			c4.57,17.848,10.836,42.292,26.725,46.652c1.695,0.464,3.41,0.699,5.104,0.699c15.83,0,24.844-19.363,30.805-32.177
			c1.072-2.3,1.994-4.283,2.789-5.789c15.408-29.199,27.617-60.742,39.422-91.241l2.193-5.671
			c16.039-41.381,25.422-73.63,30.422-104.564C535.83,287.635,539.615,264.227,538.527,241.888z"/>
	</g>
</g>
</svg>
