<?xml version="1.0" encoding="utf-8"?>
<!-- Generator: Adobe Illustrator 16.0.0, SVG Export Plug-In . SVG Version: 6.00 Build 0)  -->
<!DOCTYPE svg PUBLIC "-//W3C//DTD SVG 1.1//EN" "http://www.w3.org/Graphics/SVG/1.1/DTD/svg11.dtd">
<svg version="1.1" id="Layer_1" xmlns="http://www.w3.org/2000/svg" xmlns:xlink="http://www.w3.org/1999/xlink" x="0px" y="0px"
	 width="720px" height="360px" viewBox="0 0 720 360" enable-background="new 0 0 720 360" xml:space="preserve">
<g>
	<path fill="#0C948A" d="M231.053,275.523l-17.469-42.848h-80.789l-17.471,42.848H72.479l81.873-192.418h38.758l81.885,192.418
		H231.053z M173.182,133.601l-25.377,61.952h50.764L173.182,133.601z"/>
	<path fill="#0C948A" d="M360.01,275.523H285.5V84.475h74.51c60.045,0,101.521,41.21,101.521,94.977v0.546
		C461.531,233.764,420.055,275.523,360.01,275.523z M417.588,179.997c0-33.838-23.189-57.586-57.578-57.586h-32.482v115.171h32.482
		c34.389,0,57.578-23.195,57.578-57.04V179.997z"/>
	<path fill="#0C948A" d="M569.195,278.801c-56.219,0-97.984-43.404-97.984-98.259v-0.545c0-54.312,40.938-98.798,99.619-98.798
		c36.029,0,57.586,12.009,75.32,29.471l-26.736,30.849c-14.74-13.379-29.758-21.562-48.863-21.562
		c-32.205,0-55.4,26.743-55.4,59.494v0.546c0,32.749,22.656,60.044,55.4,60.044c21.842,0,35.215-8.732,50.227-22.379l26.746,27.018
		C627.875,265.691,606.039,278.801,569.195,278.801z"/>
</g>
</svg>
