<?xml version="1.0" encoding="utf-8"?>
<!-- Generator: Adobe Illustrator 16.0.0, SVG Export Plug-In . SVG Version: 6.00 Build 0)  -->
<!DOCTYPE svg PUBLIC "-//W3C//DTD SVG 1.1//EN" "http://www.w3.org/Graphics/SVG/1.1/DTD/svg11.dtd">
<svg version="1.1" id="Layer_1" xmlns="http://www.w3.org/2000/svg" xmlns:xlink="http://www.w3.org/1999/xlink" x="0px" y="0px"
	 width="1080px" height="360px" viewBox="0 0 1080 360" enable-background="new 0 0 1080 360" xml:space="preserve">
<g>
	<path fill="#0C948A" d="M94.599,209.52l-5.062-13.111H66.127l-5.063,13.111H48.646l23.728-58.875h11.231l23.728,58.875H94.599z
		 M77.832,166.094l-7.357,18.957h14.711L77.832,166.094z"/>
	<path fill="#0C948A" d="M153.602,209.52v-38.164l-15.581,24.97h-0.316l-15.422-24.72v37.914h-11.944v-58.457h13.13l14.553,24.719
		l14.552-24.719h13.131v58.457H153.602z"/>
	<path fill="#0C948A" d="M201.373,209.52h-26.337v-58.457h25.705c11.311,0,18.271,5.93,18.271,15.115v0.166
		c0,6.599-3.323,10.273-7.276,12.611c6.405,2.588,10.36,6.514,10.36,14.363v0.167C222.096,204.174,213.869,209.52,201.373,209.52z
		 M206.908,168.349c0-3.841-2.846-6.013-7.986-6.013H186.9v12.359h11.23c5.378,0,8.777-1.836,8.777-6.18V168.349z M209.995,191.732
		c0-3.926-2.769-6.347-9.017-6.347H186.9v12.86h14.473c5.38,0,8.622-2.005,8.622-6.348V191.732z"/>
	<path fill="#0C948A" d="M264.963,209.52L253.1,190.812h-9.57v18.707h-12.181v-58.457h25.31c13.051,0,20.88,7.266,20.88,19.291
		v0.167c0,9.437-4.825,15.366-11.862,18.122l13.525,20.877H264.963z M265.2,171.021c0-5.513-3.638-8.352-9.569-8.352h-12.102v16.785
		h12.338c5.931,0,9.333-3.34,9.333-8.267V171.021z"/>
	<path fill="#0C948A" d="M309.887,210.521c-17.084,0-29.343-13.445-29.343-30.064v-0.166c0-16.618,12.418-30.23,29.501-30.23
		c17.084,0,29.344,13.445,29.344,30.063v0.167C339.389,196.909,326.972,210.521,309.887,210.521z M326.655,180.291
		c0-10.021-6.96-18.372-16.769-18.372c-9.807,0-16.609,8.184-16.609,18.205v0.167c0,10.021,6.961,18.372,16.768,18.372
		c9.809,0,16.61-8.184,16.61-18.206V180.291z"/>
	<path fill="#0C948A" d="M365.964,210.355c-8.385,0-16.848-3.09-23.491-9.354l7.197-9.104c4.983,4.343,10.203,7.099,16.531,7.099
		c4.982,0,7.986-2.088,7.986-5.512v-0.167c0-3.257-1.896-4.927-11.152-7.432c-11.15-3.008-18.348-6.264-18.348-17.871v-0.168
		c0-10.605,8.068-17.621,19.377-17.621c8.068,0,14.948,2.673,20.564,7.434l-6.328,9.687c-4.902-3.591-9.728-5.762-14.394-5.762
		c-4.667,0-7.118,2.255-7.118,5.094v0.167c0,3.842,2.373,5.094,11.942,7.684c11.231,3.089,17.558,7.348,17.558,17.537v0.166
		C386.289,203.842,377.906,210.355,365.964,210.355z"/>
	<path fill="#0C948A" d="M396.651,209.52v-58.457h12.18v58.457H396.651z"/>
	<path fill="#0C948A" d="M445.609,210.521c-17.085,0-29.342-13.445-29.342-30.064v-0.166c0-16.618,12.416-30.23,29.5-30.23
		s29.342,13.445,29.342,30.063v0.167C475.109,196.909,462.693,210.521,445.609,210.521z M462.377,180.291
		c0-10.021-6.961-18.372-16.768-18.372S429,170.103,429,180.124v0.167c0,10.021,6.961,18.372,16.768,18.372
		s16.609-8.184,16.609-18.206V180.291z"/>
	<path fill="#0C948A" d="M529.684,209.52h-21.592v-58.457h21.592c17.4,0,29.422,12.61,29.422,29.062v0.167
		C559.105,196.742,547.084,209.52,529.684,209.52z M546.373,180.291c0-10.355-6.725-17.621-16.689-17.621h-9.412v35.242h9.412
		c9.965,0,16.689-7.1,16.689-17.455V180.291z"/>
	<path fill="#0C948A" d="M562.824,209.52v-58.457h41.759v11.441h-29.658v11.857h26.099v11.441h-26.099v12.275h30.054v11.441H562.824
		z"/>
	<path fill="#0C948A" d="M653.859,209.52l-26.812-37.162v37.162h-12.022v-58.457h11.231l25.942,35.993v-35.993h12.021v58.457
		H653.859z"/>
	<path fill="#0C948A" d="M697.043,162.92v46.6h-12.181v-46.6h-16.847v-11.857h45.874v11.857H697.043z"/>
	<path fill="#0C948A" d="M752.565,209.52l-5.062-13.111h-23.411l-5.061,13.111h-12.418l23.727-58.875h11.232l23.727,58.875H752.565z
		 M735.799,166.094l-7.357,18.957h14.713L735.799,166.094z"/>
	<path fill="#0C948A" d="M769.886,209.52v-58.457h12.181v46.766h27.604v11.691H769.886z"/>
	<path fill="#0C948A" d="M866.932,210.521c-16.295,0-28.395-13.277-28.395-30.064v-0.166c0-16.618,11.865-30.23,28.867-30.23
		c10.441,0,16.689,3.674,21.831,9.019l-7.751,9.437c-4.271-4.092-8.621-6.597-14.157-6.597c-9.333,0-16.056,8.184-16.056,18.205
		v0.167c0,10.021,6.562,18.372,16.056,18.372c6.326,0,10.202-2.673,14.553-6.848l7.751,8.268
		C883.937,206.514,877.608,210.521,866.932,210.521z"/>
	<path fill="#0C948A" d="M935.029,209.52l-5.062-13.111h-23.411l-5.062,13.111h-12.417l23.728-58.875h11.231l23.728,58.875H935.029z
		 M918.262,166.094l-7.355,18.957h14.711L918.262,166.094z"/>
	<path fill="#0C948A" d="M984.383,209.52l-11.865-18.707h-9.567v18.707h-12.182v-58.457h25.31c13.049,0,20.881,7.266,20.881,19.291
		v0.167c0,9.437-4.826,15.366-11.863,18.122l13.525,20.877H984.383z M984.621,171.021c0-5.513-3.639-8.352-9.57-8.352H962.95v16.785
		h12.338c5.931,0,9.333-3.34,9.333-8.267V171.021z"/>
	<path fill="#0C948A" d="M1003.996,209.52v-58.457h41.764v11.441h-29.66v11.857h26.1v11.441h-26.1v12.275h30.054v11.441H1003.996z"
		/>
</g>
</svg>
